<?xml version="1.0" standalone="no"?>
<!DOCTYPE svg PUBLIC "-//W3C//DTD SVG 20010904//EN"
 "http://www.w3.org/TR/2001/REC-SVG-20010904/DTD/svg10.dtd">
<svg version="1.0" xmlns="http://www.w3.org/2000/svg"
 width="512.000000pt" height="512.000000pt" viewBox="0 0 512.000000 512.000000"
 preserveAspectRatio="xMidYMid meet">

<g transform="translate(0.000000,512.000000) scale(0.100000,-0.100000)"
fill="#000000" stroke="none">
<path d="M2375 5106 c-291 -49 -517 -167 -716 -373 -233 -241 -350 -530 -351
-863 -1 -218 39 -385 138 -580 167 -326 458 -556 823 -648 96 -24 123 -27 291
-27 160 0 198 4 280 24 492 122 849 491 951 984 29 141 29 343 0 484 -51 248
-156 446 -333 629 -183 189 -393 304 -653 359 -106 23 -327 28 -430 11z m315
-396 c293 -47 547 -247 660 -520 44 -106 62 -202 62 -325 1 -292 -137 -551
-379 -712 -568 -378 -1327 30 -1326 712 1 523 469 926 983 845z"/>
<path d="M2283 2375 c-682 -104 -1259 -560 -1512 -1195 -103 -258 -134 -435
-135 -780 l-1 -255 27 -47 c21 -34 41 -53 80 -72 l52 -26 1766 0 1766 0 50 25
c145 72 147 282 4 355 -39 20 -61 20 -1696 20 l-1657 0 6 117 c13 238 66 442
167 641 221 434 640 740 1120 817 121 19 358 19 475 0 487 -79 901 -381 1130
-823 66 -127 153 -175 256 -141 88 30 139 101 139 194 0 46 -8 69 -48 148
-268 514 -754 882 -1327 1003 -103 22 -151 26 -345 29 -159 3 -252 0 -317 -10z"/>
</g>
</svg>
